<?xml version="1.0" standalone="no"?>
<svg xmlns:xlink="http://www.w3.org/1999/xlink" id="wave" style="transform:rotate(0deg); transition: 0.3s" viewBox="0 0 1440 300" version="1.1" xmlns="http://www.w3.org/2000/svg"><defs><linearGradient id="sw-gradient-0" x1="0" x2="0" y1="1" y2="0"><stop stop-color="rgba(255, 255, 255, 1)" offset="0%"/><stop stop-color="rgba(255, 255, 255, 1)" offset="100%"/></linearGradient></defs><path style="transform:translate(0, 0px); opacity:1" fill="url(#sw-gradient-0)" d="M0,120L80,135C160,150,320,180,480,200C640,220,800,230,960,230C1120,230,1280,220,1440,210C1600,200,1760,190,1920,160C2080,130,2240,80,2400,70C2560,60,2720,90,2880,130C3040,170,3200,220,3360,205C3520,190,3680,110,3840,70C4000,30,4160,30,4320,30C4480,30,4640,30,4800,70C4960,110,5120,190,5280,190C5440,190,5600,110,5760,100C5920,90,6080,150,6240,165C6400,180,6560,150,6720,115C6880,80,7040,40,7200,30C7360,20,7520,40,7680,55C7840,70,8000,80,8160,100C8320,120,8480,150,8640,145C8800,140,8960,100,9120,95C9280,90,9440,120,9600,145C9760,170,9920,190,10080,190C10240,190,10400,170,10560,140C10720,110,10880,70,11040,85C11200,100,11360,170,11440,205L11520,240L11520,300L11440,300C11360,300,11200,300,11040,300C10880,300,10720,300,10560,300C10400,300,10240,300,10080,300C9920,300,9760,300,9600,300C9440,300,9280,300,9120,300C8960,300,8800,300,8640,300C8480,300,8320,300,8160,300C8000,300,7840,300,7680,300C7520,300,7360,300,7200,300C7040,300,6880,300,6720,300C6560,300,6400,300,6240,300C6080,300,5920,300,5760,300C5600,300,5440,300,5280,300C5120,300,4960,300,4800,300C4640,300,4480,300,4320,300C4160,300,4000,300,3840,300C3680,300,3520,300,3360,300C3200,300,3040,300,2880,300C2720,300,2560,300,2400,300C2240,300,2080,300,1920,300C1760,300,1600,300,1440,300C1280,300,1120,300,960,300C800,300,640,300,480,300C320,300,160,300,80,300L0,300Z"/></svg>