<?xml version="1.0" standalone="no"?>
<svg xmlns:xlink="http://www.w3.org/1999/xlink" id="wave" style="transform:rotate(0deg); transition: 0.3s" viewBox="0 0 1440 300" version="1.1" xmlns="http://www.w3.org/2000/svg"><defs><linearGradient id="sw-gradient-0" x1="0" x2="0" y1="1" y2="0"><stop stop-color="rgba(255, 255, 255, 1)" offset="0%"/><stop stop-color="rgba(255, 255, 255, 1)" offset="100%"/></linearGradient></defs><path style="transform:translate(0, 0px); opacity:1" fill="url(#sw-gradient-0)" d="M0,180L80,155C160,130,320,80,480,50C640,20,800,10,960,45C1120,80,1280,160,1440,160C1600,160,1760,80,1920,75C2080,70,2240,140,2400,160C2560,180,2720,150,2880,120C3040,90,3200,60,3360,75C3520,90,3680,150,3840,170C4000,190,4160,170,4320,160C4480,150,4640,150,4800,155C4960,160,5120,170,5280,155C5440,140,5600,100,5760,90C5920,80,6080,100,6240,90C6400,80,6560,40,6720,45C6880,50,7040,100,7200,115C7360,130,7520,110,7680,130C7840,150,8000,210,8160,220C8320,230,8480,190,8640,180C8800,170,8960,190,9120,165C9280,140,9440,70,9600,35C9760,0,9920,0,10080,5C10240,10,10400,20,10560,35C10720,50,10880,70,11040,85C11200,100,11360,110,11440,115L11520,120L11520,300L11440,300C11360,300,11200,300,11040,300C10880,300,10720,300,10560,300C10400,300,10240,300,10080,300C9920,300,9760,300,9600,300C9440,300,9280,300,9120,300C8960,300,8800,300,8640,300C8480,300,8320,300,8160,300C8000,300,7840,300,7680,300C7520,300,7360,300,7200,300C7040,300,6880,300,6720,300C6560,300,6400,300,6240,300C6080,300,5920,300,5760,300C5600,300,5440,300,5280,300C5120,300,4960,300,4800,300C4640,300,4480,300,4320,300C4160,300,4000,300,3840,300C3680,300,3520,300,3360,300C3200,300,3040,300,2880,300C2720,300,2560,300,2400,300C2240,300,2080,300,1920,300C1760,300,1600,300,1440,300C1280,300,1120,300,960,300C800,300,640,300,480,300C320,300,160,300,80,300L0,300Z"/></svg>