<?xml version="1.0" standalone="no"?>
<svg xmlns:xlink="http://www.w3.org/1999/xlink" id="wave" style="transform:rotate(0deg); transition: 0.3s" viewBox="0 0 1440 450" version="1.1" xmlns="http://www.w3.org/2000/svg"><defs><linearGradient id="sw-gradient-0" x1="0" x2="0" y1="1" y2="0"><stop stop-color="#ffffff" offset="0%"/><stop stop-color="#ffffff" offset="100%"/></linearGradient></defs><path style="transform:translate(0, 0px); opacity:1" fill="url(#sw-gradient-0)" d="M0,270L80,232.5C160,195,320,120,480,75C640,30,800,15,960,67.5C1120,120,1280,240,1440,240C1600,240,1760,120,1920,112.5C2080,105,2240,210,2400,240C2560,270,2720,225,2880,180C3040,135,3200,90,3360,112.5C3520,135,3680,225,3840,255C4000,285,4160,255,4320,240C4480,225,4640,225,4800,232.5C4960,240,5120,255,5280,232.5C5440,210,5600,150,5760,135C5920,120,6080,150,6240,135C6400,120,6560,60,6720,67.5C6880,75,7040,150,7200,172.5C7360,195,7520,165,7680,195C7840,225,8000,315,8160,330C8320,345,8480,285,8640,270C8800,255,8960,285,9120,247.5C9280,210,9440,105,9600,52.5C9760,0,9920,0,10080,7.5C10240,15,10400,30,10560,52.5C10720,75,10880,105,11040,127.5C11200,150,11360,165,11440,172.5L11520,180L11520,450L11440,450C11360,450,11200,450,11040,450C10880,450,10720,450,10560,450C10400,450,10240,450,10080,450C9920,450,9760,450,9600,450C9440,450,9280,450,9120,450C8960,450,8800,450,8640,450C8480,450,8320,450,8160,450C8000,450,7840,450,7680,450C7520,450,7360,450,7200,450C7040,450,6880,450,6720,450C6560,450,6400,450,6240,450C6080,450,5920,450,5760,450C5600,450,5440,450,5280,450C5120,450,4960,450,4800,450C4640,450,4480,450,4320,450C4160,450,4000,450,3840,450C3680,450,3520,450,3360,450C3200,450,3040,450,2880,450C2720,450,2560,450,2400,450C2240,450,2080,450,1920,450C1760,450,1600,450,1440,450C1280,450,1120,450,960,450C800,450,640,450,480,450C320,450,160,450,80,450L0,450Z"/></svg>