<?xml version="1.0" standalone="no"?>
<svg xmlns:xlink="http://www.w3.org/1999/xlink" id="wave" style="transform:rotate(0deg); transition: 0.3s" viewBox="0 0 1440 490" version="1.1" xmlns="http://www.w3.org/2000/svg"><defs><linearGradient id="sw-gradient-0" x1="0" x2="0" y1="1" y2="0"><stop stop-color="rgba(255, 255, 255, 1)" offset="0%"/><stop stop-color="rgba(255, 255, 255, 1)" offset="100%"/></linearGradient></defs><path style="transform:translate(0, 0px); opacity:1" fill="url(#sw-gradient-0)" d="M0,245L60,253.2C120,261,240,278,360,285.8C480,294,600,294,720,253.2C840,212,960,131,1080,106.2C1200,82,1320,114,1440,114.3C1560,114,1680,82,1800,65.3C1920,49,2040,49,2160,73.5C2280,98,2400,147,2520,212.3C2640,278,2760,359,2880,375.7C3000,392,3120,343,3240,294C3360,245,3480,196,3600,147C3720,98,3840,49,3960,89.8C4080,131,4200,261,4320,269.5C4440,278,4560,163,4680,114.3C4800,65,4920,82,5040,98C5160,114,5280,131,5400,163.3C5520,196,5640,245,5760,236.8C5880,229,6000,163,6120,179.7C6240,196,6360,294,6480,294C6600,294,6720,196,6840,138.8C6960,82,7080,65,7200,122.5C7320,180,7440,310,7560,302.2C7680,294,7800,147,7920,114.3C8040,82,8160,163,8280,204.2C8400,245,8520,245,8580,245L8640,245L8640,490L8580,490C8520,490,8400,490,8280,490C8160,490,8040,490,7920,490C7800,490,7680,490,7560,490C7440,490,7320,490,7200,490C7080,490,6960,490,6840,490C6720,490,6600,490,6480,490C6360,490,6240,490,6120,490C6000,490,5880,490,5760,490C5640,490,5520,490,5400,490C5280,490,5160,490,5040,490C4920,490,4800,490,4680,490C4560,490,4440,490,4320,490C4200,490,4080,490,3960,490C3840,490,3720,490,3600,490C3480,490,3360,490,3240,490C3120,490,3000,490,2880,490C2760,490,2640,490,2520,490C2400,490,2280,490,2160,490C2040,490,1920,490,1800,490C1680,490,1560,490,1440,490C1320,490,1200,490,1080,490C960,490,840,490,720,490C600,490,480,490,360,490C240,490,120,490,60,490L0,490Z"/></svg>