<?xml version="1.0" standalone="no"?>
<svg xmlns:xlink="http://www.w3.org/1999/xlink" id="wave" style="transform:rotate(0deg); transition: 0.3s" viewBox="0 0 1440 490" version="1.1" xmlns="http://www.w3.org/2000/svg"><defs><linearGradient id="sw-gradient-0" x1="0" x2="0" y1="1" y2="0"><stop stop-color="rgba(255, 255, 255, 1)" offset="0%"/><stop stop-color="rgba(255, 255, 255, 1)" offset="100%"/></linearGradient></defs><path style="transform:translate(0, 0px); opacity:1" fill="url(#sw-gradient-0)" d="M0,392L120,392C240,392,480,392,720,343C960,294,1200,196,1440,196C1680,196,1920,294,2160,343C2400,392,2640,392,2880,334.8C3120,278,3360,163,3600,130.7C3840,98,4080,147,4320,196C4560,245,4800,294,5040,302.2C5280,310,5520,278,5760,285.8C6000,294,6240,343,6480,375.7C6720,408,6960,425,7200,408.3C7440,392,7680,343,7920,277.7C8160,212,8400,131,8640,147C8880,163,9120,278,9360,326.7C9600,376,9840,359,10080,367.5C10320,376,10560,408,10800,400.2C11040,392,11280,343,11520,334.8C11760,327,12000,359,12240,310.3C12480,261,12720,131,12960,138.8C13200,147,13440,294,13680,302.2C13920,310,14160,180,14400,171.5C14640,163,14880,278,15120,302.2C15360,327,15600,261,15840,236.8C16080,212,16320,229,16560,204.2C16800,180,17040,114,17160,81.7L17280,49L17280,490L17160,490C17040,490,16800,490,16560,490C16320,490,16080,490,15840,490C15600,490,15360,490,15120,490C14880,490,14640,490,14400,490C14160,490,13920,490,13680,490C13440,490,13200,490,12960,490C12720,490,12480,490,12240,490C12000,490,11760,490,11520,490C11280,490,11040,490,10800,490C10560,490,10320,490,10080,490C9840,490,9600,490,9360,490C9120,490,8880,490,8640,490C8400,490,8160,490,7920,490C7680,490,7440,490,7200,490C6960,490,6720,490,6480,490C6240,490,6000,490,5760,490C5520,490,5280,490,5040,490C4800,490,4560,490,4320,490C4080,490,3840,490,3600,490C3360,490,3120,490,2880,490C2640,490,2400,490,2160,490C1920,490,1680,490,1440,490C1200,490,960,490,720,490C480,490,240,490,120,490L0,490Z"/></svg>