<?xml version="1.0" standalone="no"?>
<svg xmlns:xlink="http://www.w3.org/1999/xlink" id="wave" style="transform:rotate(180deg); transition: 0.3s" viewBox="0 0 1440 490" version="1.1" xmlns="http://www.w3.org/2000/svg"><defs><linearGradient id="sw-gradient-0" x1="0" x2="0" y1="1" y2="0"><stop stop-color="rgba(255, 255, 255, 1)" offset="0%"/><stop stop-color="rgba(255, 255, 255, 1)" offset="100%"/></linearGradient></defs><path style="transform:translate(0, 0px); opacity:1" fill="url(#sw-gradient-0)" d="M0,147L120,163.3C240,180,480,212,720,212.3C960,212,1200,180,1440,138.8C1680,98,1920,49,2160,73.5C2400,98,2640,196,2880,204.2C3120,212,3360,131,3600,114.3C3840,98,4080,147,4320,163.3C4560,180,4800,163,5040,179.7C5280,196,5520,245,5760,236.8C6000,229,6240,163,6480,138.8C6720,114,6960,131,7200,114.3C7440,98,7680,49,7920,40.8C8160,33,8400,65,8640,65.3C8880,65,9120,33,9360,81.7C9600,131,9840,261,10080,318.5C10320,376,10560,359,10800,326.7C11040,294,11280,245,11520,204.2C11760,163,12000,131,12240,155.2C12480,180,12720,261,12960,302.2C13200,343,13440,343,13680,318.5C13920,294,14160,245,14400,220.5C14640,196,14880,196,15120,187.8C15360,180,15600,163,15840,187.8C16080,212,16320,278,16560,326.7C16800,376,17040,408,17160,424.7L17280,441L17280,490L17160,490C17040,490,16800,490,16560,490C16320,490,16080,490,15840,490C15600,490,15360,490,15120,490C14880,490,14640,490,14400,490C14160,490,13920,490,13680,490C13440,490,13200,490,12960,490C12720,490,12480,490,12240,490C12000,490,11760,490,11520,490C11280,490,11040,490,10800,490C10560,490,10320,490,10080,490C9840,490,9600,490,9360,490C9120,490,8880,490,8640,490C8400,490,8160,490,7920,490C7680,490,7440,490,7200,490C6960,490,6720,490,6480,490C6240,490,6000,490,5760,490C5520,490,5280,490,5040,490C4800,490,4560,490,4320,490C4080,490,3840,490,3600,490C3360,490,3120,490,2880,490C2640,490,2400,490,2160,490C1920,490,1680,490,1440,490C1200,490,960,490,720,490C480,490,240,490,120,490L0,490Z"/></svg>