<?xml version="1.0" standalone="no"?>
<svg xmlns:xlink="http://www.w3.org/1999/xlink" id="wave" style="transform:rotate(180deg); transition: 0.3s" viewBox="0 0 1450 160" version="1.1" xmlns="http://www.w3.org/2000/svg"><defs><linearGradient id="sw-gradient-0" x1="0" x2="0" y1="1" y2="0"><stop stop-color="#ffffff" offset="0%"/><stop stop-color="#ffffff" offset="100%"/></linearGradient></defs><path style="transform:translate(0, 0px); opacity:1" fill="url(#sw-gradient-0)" d="M0,96L80,82.7C160,69,320,43,480,26.7C640,11,800,5,960,24C1120,43,1280,85,1440,85.3C1600,85,1760,43,1920,40C2080,37,2240,75,2400,85.3C2560,96,2720,80,2880,64C3040,48,3200,32,3360,40C3520,48,3680,80,3840,90.7C4000,101,4160,91,4320,85.3C4480,80,4640,80,4800,82.7C4960,85,5120,91,5280,82.7C5440,75,5600,53,5760,48C5920,43,6080,53,6240,48C6400,43,6560,21,6720,24C6880,27,7040,53,7200,61.3C7360,69,7520,59,7680,69.3C7840,80,8000,112,8160,117.3C8320,123,8480,101,8640,96C8800,91,8960,101,9120,88C9280,75,9440,37,9600,18.7C9760,0,9920,0,10080,2.7C10240,5,10400,11,10560,18.7C10720,27,10880,37,11040,45.3C11200,53,11360,59,11440,61.3L11520,64L11520,160L11440,160C11360,160,11200,160,11040,160C10880,160,10720,160,10560,160C10400,160,10240,160,10080,160C9920,160,9760,160,9600,160C9440,160,9280,160,9120,160C8960,160,8800,160,8640,160C8480,160,8320,160,8160,160C8000,160,7840,160,7680,160C7520,160,7360,160,7200,160C7040,160,6880,160,6720,160C6560,160,6400,160,6240,160C6080,160,5920,160,5760,160C5600,160,5440,160,5280,160C5120,160,4960,160,4800,160C4640,160,4480,160,4320,160C4160,160,4000,160,3840,160C3680,160,3520,160,3360,160C3200,160,3040,160,2880,160C2720,160,2560,160,2400,160C2240,160,2080,160,1920,160C1760,160,1600,160,1440,160C1280,160,1120,160,960,160C800,160,640,160,480,160C320,160,160,160,80,160L0,160Z"/></svg>